<svg id="Layer_1" data-name="Layer 1" xmlns="http://www.w3.org/2000/svg" viewBox="0 0 155.08 155.08"><defs><style>.cls-1{fill:#2e3191;}</style></defs><title>reonomy-logo</title><path class="cls-1" d="M154.6,79.12a1.43,1.43,0,0,0,.12-.21,2.49,2.49,0,0,0,.15-.28c0-.09.06-.19.08-.28a1.83,1.83,0,0,0,.08-.25A3,3,0,0,0,155,77a2.25,2.25,0,0,0-.08-.24,2.45,2.45,0,0,0-.08-.29,2.49,2.49,0,0,0-.15-.28,2.25,2.25,0,0,0-.12-.21,2.83,2.83,0,0,0-.79-.79,1.43,1.43,0,0,0-.21-.12l-.28-.14c-.09,0-.19-.06-.28-.09l-.25-.08a3.41,3.41,0,0,0-.55,0h-34.5V40.2a2.6,2.6,0,0,0-.06-.56,1,1,0,0,0-.07-.25c0-.09,0-.19-.09-.28a2.44,2.44,0,0,0-.14-.28,1.43,1.43,0,0,0-.12-.21,2.17,2.17,0,0,0-.36-.44L79.56.84a2.85,2.85,0,0,0-4,0L38.18,38.18h0L.84,75.52a2.85,2.85,0,0,0,0,4L38.18,116.9h0l37.34,37.34a2.51,2.51,0,0,0,.44.35,2.39,2.39,0,0,0,.22.12c.09.05.18.11.27.15l.29.08L77,155a3.53,3.53,0,0,0,.56.05,3.43,3.43,0,0,0,.56-.05l.24-.08.29-.08a2.34,2.34,0,0,0,.27-.15,1.55,1.55,0,0,0,.22-.12,2.51,2.51,0,0,0,.44-.35l37.34-37.34h0l37.34-37.34A2.51,2.51,0,0,0,154.6,79.12Zm-9.26,1.28L117.74,108V80.4ZM77.54,6.89,110.85,40.2,77.54,73.51,44.23,40.2ZM37.34,108,6.89,77.54,37.34,47.09Zm5.71-60.9L74.69,78.72v66.62L43.05,113.7ZM80.4,78.72,112,47.09V113.7L80.4,145.34Z" transform="translate(0 0)"/></svg>